<svg width="45" height="41" viewBox="0 0 45 41" fill="none" xmlns="http://www.w3.org/2000/svg">
<path d="M8.18182 16.4V41H0V16.4H8.18182ZM16.3636 41C15.2787 41 14.2381 40.568 13.4709 39.7991C12.7037 39.0302 12.2727 37.9874 12.2727 36.9V16.4C12.2727 15.2725 12.7227 14.2475 13.4795 13.5095L26.9386 0L29.1068 2.173C29.6591 2.7265 30.0068 3.485 30.0068 4.3255L29.9455 4.9815L28.0023 14.35H40.9091C43.1795 14.35 45 16.195 45 18.45V22.55C45 23.083 44.8977 23.575 44.7136 24.0465L38.5364 38.499C37.9227 39.975 36.4705 41 34.7727 41H16.3636ZM16.3636 36.9H34.8341L40.9091 22.55V18.45H22.9295L25.2409 7.544L16.3636 16.4615V36.9Z" fill="white"/>
</svg>
