<svg width="29" height="51" viewBox="0 0 29 51" fill="none" xmlns="http://www.w3.org/2000/svg">
<path d="M0.541626 33.875H6.12496C6.12496 36.89 9.94954 39.4583 14.5 39.4583C19.0504 39.4583 22.875 36.89 22.875 33.875C22.875 30.8042 19.9716 29.6875 13.83 28.2079C7.91163 26.7283 0.541626 24.8858 0.541626 17.125C0.541626 12.1279 4.64538 7.88458 10.3125 6.46083V0.375H18.6875V6.46083C24.3545 7.88458 28.4583 12.1279 28.4583 17.125H22.875C22.875 14.11 19.0504 11.5417 14.5 11.5417C9.94954 11.5417 6.12496 14.11 6.12496 17.125C6.12496 20.1958 9.02829 21.3125 15.17 22.7921C21.0883 24.2717 28.4583 26.1142 28.4583 33.875C28.4583 38.8721 24.3545 43.1154 18.6875 44.5392V50.625H10.3125V44.5392C4.64538 43.1154 0.541626 38.8721 0.541626 33.875Z" fill="white"/>
</svg>
