<svg width="57" height="35" viewBox="0 0 57 35" fill="none" xmlns="http://www.w3.org/2000/svg">
<path d="M42.4583 14.4998H50.8333C52.3141 14.4998 53.7342 15.0881 54.7813 16.1352C55.8284 17.1822 56.4166 18.6024 56.4166 20.0832V28.4582C56.4166 29.939 55.8284 31.3591 54.7813 32.4062C53.7342 33.4533 52.3141 34.0415 50.8333 34.0415H42.4583C40.9775 34.0415 39.5574 33.4533 38.5103 32.4062C37.4632 31.3591 36.875 29.939 36.875 28.4582V20.0832C36.875 18.6024 37.4632 17.1822 38.5103 16.1352C39.5574 15.0881 40.9775 14.4998 42.4583 14.4998ZM42.4583 20.0832V28.4582H50.8333V20.0832H42.4583ZM0.583313 0.541504H14.5416C16.0224 0.541504 17.4426 1.12975 18.4897 2.17682C19.5367 3.2239 20.125 4.64405 20.125 6.12484V11.7082C20.125 13.189 19.5367 14.6091 18.4897 15.6562C17.4426 16.7033 16.0224 17.2915 14.5416 17.2915C16.0224 17.2915 17.4426 17.8797 18.4897 18.9268C19.5367 19.9739 20.125 21.394 20.125 22.8748V28.4582C20.125 29.939 19.5367 31.3591 18.4897 32.4062C17.4426 33.4533 16.0224 34.0415 14.5416 34.0415H0.583313V17.2915V0.541504ZM6.16665 6.12484V14.4998H14.5416V6.12484H6.16665ZM6.16665 28.4582H14.5416V20.0832H6.16665V28.4582ZM25.7083 17.2915H31.2916V34.0415H25.7083V17.2915ZM25.7083 6.12484H31.2916V11.7082H25.7083V6.12484Z" fill="white"/>
</svg>
