<svg width="22" height="31" viewBox="0 0 22 31" fill="none" xmlns="http://www.w3.org/2000/svg">
<path d="M10.7917 14.6458C9.76948 14.6458 8.78916 14.2398 8.06636 13.517C7.34356 12.7942 6.9375 11.8139 6.9375 10.7917C6.9375 9.76948 7.34356 8.78916 8.06636 8.06636C8.78916 7.34356 9.76948 6.9375 10.7917 6.9375C11.8139 6.9375 12.7942 7.34356 13.517 8.06636C14.2398 8.78916 14.6458 9.76948 14.6458 10.7917C14.6458 11.2978 14.5461 11.799 14.3525 12.2666C14.1588 12.7342 13.8749 13.1591 13.517 13.517C13.1591 13.8749 12.7342 14.1588 12.2666 14.3525C11.799 14.5461 11.2978 14.6458 10.7917 14.6458ZM10.7917 0C7.92954 0 5.18464 1.13698 3.16081 3.16081C1.13698 5.18464 0 7.92954 0 10.7917C0 18.8854 10.7917 30.8333 10.7917 30.8333C10.7917 30.8333 21.5833 18.8854 21.5833 10.7917C21.5833 7.92954 20.4464 5.18464 18.4225 3.16081C16.3987 1.13698 13.6538 0 10.7917 0Z" fill="#437C9A"/>
</svg>
