<svg width="23" height="23" viewBox="0 0 23 23" fill="none" xmlns="http://www.w3.org/2000/svg">
<path d="M2.5 0C1.83696 0 1.20107 0.263392 0.732233 0.732233C0.263392 1.20107 0 1.83696 0 2.5V20C0 20.663 0.263392 21.2989 0.732233 21.7678C1.20107 22.2366 1.83696 22.5 2.5 22.5H20C20.663 22.5 21.2989 22.2366 21.7678 21.7678C22.2366 21.2989 22.5 20.663 22.5 20V2.5C22.5 1.83696 22.2366 1.20107 21.7678 0.732233C21.2989 0.263392 20.663 0 20 0H2.5ZM4.25 4.375H18.25C19.2125 4.375 20 5.15 20 6.125V16.375C20 16.8391 19.8156 17.2842 19.4874 17.6124C19.1592 17.9406 18.7141 18.125 18.25 18.125H4.25C3.2875 18.125 2.5 17.3375 2.5 16.375V6.125C2.5 5.15 3.275 4.375 4.25 4.375ZM3.75 6.25V8.75L11.25 13.75L18.75 8.75V6.25L11.25 11.25L3.75 6.25Z" fill="#437C9A"/>
</svg>
