<svg width="23" height="24" viewBox="0 0 23 24" fill="none" xmlns="http://www.w3.org/2000/svg">
<path d="M2.5 0.75C1.83696 0.75 1.20107 1.01339 0.732233 1.48223C0.263392 1.95107 0 2.58696 0 3.25V20.75C0 21.413 0.263392 22.0489 0.732233 22.5178C1.20107 22.9866 1.83696 23.25 2.5 23.25H20C20.663 23.25 21.2989 22.9866 21.7678 22.5178C22.2366 22.0489 22.5 21.413 22.5 20.75V3.25C22.5 2.58696 22.2366 1.95107 21.7678 1.48223C21.2989 1.01339 20.663 0.75 20 0.75H2.5ZM4.25 5.125H18.25C19.2125 5.125 20 5.9 20 6.875V17.125C20 17.5891 19.8156 18.0342 19.4874 18.3624C19.1592 18.6906 18.7141 18.875 18.25 18.875H4.25C3.2875 18.875 2.5 18.0875 2.5 17.125V6.875C2.5 5.9 3.275 5.125 4.25 5.125ZM3.75 7V9.5L11.25 14.5L18.75 9.5V7L11.25 12L3.75 7Z" fill="white"/>
</svg>
