<svg width="37" height="37" viewBox="0 0 37 37" fill="none" xmlns="http://www.w3.org/2000/svg">
<path d="M18.5 17.7291C17.4778 17.7291 16.4975 17.3231 15.7747 16.6003C15.0519 15.8775 14.6458 14.8972 14.6458 13.875C14.6458 12.8528 15.0519 11.8725 15.7747 11.1497C16.4975 10.4269 17.4778 10.0208 18.5 10.0208C19.5222 10.0208 20.5025 10.4269 21.2253 11.1497C21.9481 11.8725 22.3542 12.8528 22.3542 13.875C22.3542 14.3811 22.2545 14.8823 22.0608 15.3499C21.8671 15.8175 21.5832 16.2424 21.2253 16.6003C20.8674 16.9582 20.4425 17.2421 19.9749 17.4358C19.5073 17.6295 19.0061 17.7291 18.5 17.7291ZM18.5 3.08331C15.6379 3.08331 12.893 4.22029 10.8691 6.24412C8.84532 8.26795 7.70834 11.0129 7.70834 13.875C7.70834 21.9687 18.5 33.9166 18.5 33.9166C18.5 33.9166 29.2917 21.9687 29.2917 13.875C29.2917 11.0129 28.1547 8.26795 26.1309 6.24412C24.107 4.22029 21.3621 3.08331 18.5 3.08331Z" fill="#437C9A"/>
</svg>
