<svg width="30" height="30" viewBox="0 0 30 30" fill="none" xmlns="http://www.w3.org/2000/svg">
<path d="M6.25 3.75C5.58696 3.75 4.95107 4.01339 4.48223 4.48223C4.01339 4.95107 3.75 5.58696 3.75 6.25V23.75C3.75 24.413 4.01339 25.0489 4.48223 25.5178C4.95107 25.9866 5.58696 26.25 6.25 26.25H23.75C24.413 26.25 25.0489 25.9866 25.5178 25.5178C25.9866 25.0489 26.25 24.413 26.25 23.75V6.25C26.25 5.58696 25.9866 4.95107 25.5178 4.48223C25.0489 4.01339 24.413 3.75 23.75 3.75H6.25ZM8 8.125H22C22.9625 8.125 23.75 8.9 23.75 9.875V20.125C23.75 20.5891 23.5656 21.0342 23.2374 21.3624C22.9092 21.6906 22.4641 21.875 22 21.875H8C7.0375 21.875 6.25 21.0875 6.25 20.125V9.875C6.25 8.9 7.025 8.125 8 8.125ZM7.5 10V12.5L15 17.5L22.5 12.5V10L15 15L7.5 10Z" fill="#437C9A"/>
</svg>
