<svg width="35" height="35" viewBox="0 0 35 35" fill="none" xmlns="http://www.w3.org/2000/svg">
<path d="M31.9176 35C31.6921 35 31.4597 35 31.2342 35C30.7078 34.8291 30.332 34.4668 29.9492 34.084C27.5845 31.7119 25.2128 29.3535 22.8549 26.9746C22.6293 26.749 22.479 26.7217 22.1919 26.8652C20.1143 27.918 17.9203 28.2324 15.6308 27.8222C14.3048 27.5898 13.0746 27.0977 11.9332 26.3867C11.0721 27.2412 10.2041 28.082 9.37025 28.9502C9.25408 29.0732 9.23358 29.3603 9.26092 29.5518C9.56842 31.5683 8.63892 33.4961 6.82777 34.4326C6.32201 34.6924 5.74107 34.8086 5.1943 34.9932C4.85257 34.9932 4.51084 34.9932 4.16911 34.9932C4.08026 34.9658 3.99824 34.9317 3.90939 34.9248C3.49932 34.8769 3.15075 34.7129 3.02089 34.2891C2.89103 33.8721 3.07557 33.5507 3.37629 33.2568C3.94357 32.71 4.49033 32.1494 5.04393 31.5888C5.34466 31.2812 5.33782 30.9942 5.05077 30.6933C4.83207 30.4609 4.60652 30.2353 4.38098 30.0166C3.99141 29.6338 3.72486 29.6338 3.33528 30.0166C2.76118 30.584 2.19391 31.165 1.61297 31.7256C1.07303 32.2519 0.293888 32.0195 0.109353 31.2812C0.0751807 31.1513 0.0410076 31.0215 0.0068346 30.8916C0.0068346 30.5019 0.0068346 30.1192 0.0068346 29.7295C0.0273384 29.6885 0.0546768 29.6543 0.0615114 29.6064C0.560438 26.9404 2.80218 25.3408 5.46768 25.751C5.76157 25.7988 5.99395 25.7168 6.20582 25.4981C6.95762 24.7324 7.71627 23.9805 8.47492 23.2217C8.52958 23.167 8.57058 23.1055 8.60475 23.0712C6.36985 19.0996 6.48604 15.2237 8.98067 11.3408C8.89867 11.2862 8.7825 11.2246 8.69358 11.1426C6.97129 9.41992 5.23531 7.71094 3.53349 5.96777C2.87053 5.29102 2.1734 4.70312 1.29174 4.34766C0.881667 4.18359 0.656122 3.86231 0.553602 3.43164C0.369068 2.76856 0.1777 2.10547 0 1.43555C0 1.25097 0 1.07324 0 0.888675C0.170865 0.47168 0.471588 0.177734 0.8885 0C1.07303 0 1.25073 0 1.43527 0C2.03671 0.164062 2.63133 0.348633 3.2396 0.47168C3.82054 0.594727 4.21012 0.888675 4.45616 1.44238C4.64753 1.87988 4.85257 2.34473 5.17379 2.67285C7.16267 4.70996 9.18567 6.70606 11.2019 8.72267C11.2771 8.79783 11.3659 8.87308 11.4412 8.94142C13.1907 7.71777 15.1045 7.06836 17.2027 7.00683C19.3146 6.94532 21.2693 7.50586 23.0804 8.62008C23.8869 7.80664 24.6797 7.00683 25.4862 6.2207C25.7323 5.98144 25.8075 5.72852 25.7459 5.39356C25.3496 3.13769 26.7507 0.875 28.9446 0.205078C29.2043 0.129882 29.4708 0.0683593 29.7305 0C30.1201 0 30.5028 0 30.8924 0C30.9539 0.0205078 31.0154 0.0546875 31.0837 0.0615234C31.5007 0.109375 31.8356 0.280273 31.9654 0.697266C32.0953 1.11426 31.9107 1.43555 31.61 1.72949C31.0496 2.26269 30.5097 2.81641 29.9629 3.37012C29.6348 3.70507 29.6348 3.98535 29.9629 4.32032C30.1679 4.53223 30.3798 4.74414 30.5917 4.94922C31.0154 5.37305 31.2547 5.37305 31.6852 4.94922C32.2525 4.38868 32.8061 3.81445 33.3802 3.26074C33.927 2.73438 34.6992 2.9668 34.8838 3.70508C34.9248 3.85547 34.959 4.01269 34.9932 4.16992C34.9932 4.51172 34.9932 4.85352 34.9932 5.19532C34.9795 5.22266 34.9453 5.25 34.9453 5.28418C34.6377 7.82715 32.1637 9.77542 29.4298 9.25583C29.2726 9.2285 29.0402 9.29 28.9308 9.39258C28.0697 10.2197 27.2291 11.0743 26.3816 11.915C26.4226 11.9971 26.4567 12.0586 26.4909 12.1132C28.3977 15.4629 28.514 18.8672 26.8053 22.3193C26.6892 22.5586 26.7848 22.6612 26.9283 22.8047C29.3204 25.1973 31.7126 27.5898 34.1047 29.9756C34.4806 30.3447 34.8292 30.7207 35 31.2334C35 31.459 35 31.6914 35 31.917C34.8565 32.4297 34.5352 32.8125 34.1593 33.1612C33.8176 33.4756 33.4896 33.8106 33.1752 34.1455C32.8061 34.5352 32.4302 34.8564 31.9176 35ZM26.8258 17.4932C26.8122 12.332 22.6225 8.15527 17.4692 8.16211C12.3365 8.16894 8.15368 12.3663 8.16052 17.5C8.16735 22.6612 12.3707 26.8447 17.5171 26.8311C22.6636 26.8174 26.8463 22.6269 26.8258 17.4932ZM1.19606 30.5156C1.69498 30.0097 2.1324 29.5518 2.59032 29.1074C3.32162 28.4033 4.37415 28.4033 5.11228 29.1006C5.38567 29.3603 5.65222 29.6269 5.91193 29.8936C6.61589 30.625 6.61589 31.6504 5.91877 32.375C5.53603 32.7783 5.13278 33.168 4.73638 33.5644C4.66803 33.6328 4.61336 33.708 4.52451 33.8106C4.71587 33.8106 4.86624 33.8242 5.00977 33.8106C7.03281 33.5644 8.39292 31.876 8.11951 29.8525C8.00332 28.9913 8.22886 28.3418 8.8645 27.7881C9.07633 27.6035 9.26775 27.3847 9.47275 27.1865C9.96483 26.6943 10.4501 26.209 10.8738 25.7852C10.3134 25.2314 9.78033 24.6914 9.23358 24.1445C9.21992 24.1582 9.13783 24.2334 9.05583 24.3086C8.36558 24.999 7.66843 25.6894 6.97813 26.3867C6.50654 26.8652 5.94611 26.9883 5.28998 26.9199C4.83207 26.8721 4.35364 26.8584 3.90256 26.9404C2.26225 27.2549 1.03886 28.8613 1.19606 30.5156ZM24.133 9.20117C24.7139 9.78225 25.247 10.3223 25.7938 10.8692C26.5114 10.1513 27.2769 9.37208 28.0492 8.59958C28.5003 8.14843 29.0402 7.99121 29.669 8.10058C30.8992 8.30567 31.9722 7.97754 32.8471 7.08203C33.5238 6.38477 33.8381 5.53027 33.8176 4.45703C33.3118 4.96973 32.8676 5.4209 32.4165 5.86523C31.6511 6.61719 30.6258 6.62402 29.8604 5.87891C29.6075 5.63282 29.3546 5.38672 29.1086 5.13379C28.3636 4.36817 28.3636 3.3291 29.1086 2.57031C29.4982 2.17382 29.8946 1.78418 30.291 1.38769C30.3457 1.33301 30.3935 1.25782 30.4618 1.17578C28.3157 1.05957 26.5661 2.97363 26.8805 5.10644C27.0103 5.96093 26.7848 6.60352 26.1628 7.18457C25.4452 7.86132 24.7617 8.57908 24.133 9.20117ZM25.2812 24.541C25.3974 24.6299 25.5136 24.6914 25.5956 24.7802C27.5298 26.7148 29.4572 28.6494 31.3913 30.5772C31.4802 30.666 31.5758 30.7481 31.6442 30.8506C31.8082 31.0967 31.7877 31.3496 31.5895 31.5683C31.405 31.7802 31.0837 31.8144 30.8446 31.6504C30.7421 31.582 30.6532 31.4863 30.5643 31.3975C28.6233 29.4561 26.6823 27.5147 24.7413 25.5732C24.6524 25.4912 24.5636 25.4092 24.4679 25.3203C24.1603 25.5732 23.8732 25.8057 23.5862 26.0381C23.6204 26.0859 23.6272 26.1064 23.6477 26.1201C26.1355 28.6084 28.6233 31.0967 31.1111 33.585C31.4392 33.9131 31.7262 33.9131 32.0542 33.585C32.5327 33.1132 33.0043 32.6348 33.4827 32.1631C33.9407 31.7051 33.9407 31.4795 33.4827 31.0215C31.0837 28.6221 28.6848 26.2227 26.2859 23.8232C26.2107 23.7481 26.1287 23.6728 26.033 23.5908C25.8007 23.8984 25.5751 24.1787 25.2812 24.541ZM1.17555 1.16894C1.33958 1.81836 1.48994 2.38574 1.61297 2.9668C1.66081 3.19922 1.76332 3.3291 1.9752 3.41113C2.82952 3.74609 3.50615 4.30664 4.1486 4.95606C5.87776 6.7334 7.64792 8.47658 9.40442 10.2334C9.49325 10.3222 9.54108 10.4453 9.58208 10.5137C9.93067 10.1788 10.1972 9.91892 10.5252 9.6045C10.4364 9.543 10.3203 9.48142 10.2314 9.39258C8.54325 7.71093 6.87561 6.01562 5.17379 4.35449C4.42882 3.62988 3.74537 2.88477 3.36262 1.90723C3.32845 1.81152 3.23277 1.70215 3.14392 1.67481C2.51513 1.50391 1.87268 1.34668 1.17555 1.16894Z" fill="#427C9C"/>
<path d="M14.0041 12.2434C14.0041 12.0042 13.9973 11.8128 14.0041 11.6214C14.0314 10.678 14.7628 9.92602 15.7059 9.91235C16.902 9.89869 18.098 9.89185 19.2941 9.91235C20.2373 9.92602 20.9686 10.678 20.9959 11.6145C21.0028 11.8059 20.9959 11.9974 20.9959 12.2366C21.5222 12.2366 22.0211 12.2639 22.5132 12.2298C23.6204 12.1614 24.5704 12.9475 24.5021 14.219C24.4611 14.9915 24.4884 15.7708 24.4953 16.5433C24.5021 17.0286 24.3585 17.4524 24.0442 17.8353C23.9621 17.9309 23.9279 18.1019 23.9279 18.2317C23.9211 19.3049 23.9211 20.3714 23.9211 21.4446C23.9211 22.5999 23.2035 23.3245 22.0484 23.3245C19.0207 23.3245 15.993 23.3245 12.9584 23.3245C11.8033 23.3245 11.0858 22.5999 11.0858 21.4514C11.0858 20.3782 11.0926 19.3118 11.0789 18.2385C11.0789 18.0882 11.0106 17.9104 10.9148 17.7874C10.662 17.4456 10.5116 17.0833 10.5116 16.6526C10.5116 15.7776 10.4979 14.8958 10.5116 14.0208C10.5253 12.9749 11.2703 12.2571 12.3159 12.2434C12.8559 12.2434 13.4027 12.2434 14.0041 12.2434ZM19.1711 18.2317C20.4423 17.8831 21.693 17.5481 22.9369 17.1927C23.224 17.1106 23.3265 16.8714 23.3265 16.5774C23.3197 15.7571 23.3265 14.9368 23.3265 14.1165C23.3265 13.6174 23.1215 13.4055 22.6225 13.4055C19.2053 13.4055 15.7948 13.4055 12.3775 13.4055C11.8785 13.4055 11.6735 13.6106 11.6735 14.1165C11.6735 14.9163 11.6735 15.7093 11.6735 16.509C11.6735 16.9808 11.776 17.1174 12.2203 17.2405C13.2044 17.5139 14.1955 17.7805 15.1797 18.054C15.3983 18.1155 15.6103 18.1702 15.8289 18.2249C16.1228 17.6712 16.5671 17.4661 17.1412 17.5003C17.3804 17.5139 17.6196 17.5139 17.8588 17.5003C18.4329 17.4661 18.8772 17.6644 19.1711 18.2317ZM12.2408 18.4641C12.2408 19.4964 12.2408 20.4739 12.2408 21.4583C12.2408 21.9573 12.4527 22.1624 12.9516 22.1624C15.9793 22.1624 19.0138 22.1624 22.0416 22.1624C22.5405 22.1624 22.7456 21.9573 22.7524 21.4583C22.7593 20.5491 22.7524 19.6331 22.7524 18.7239C22.7524 18.6487 22.7388 18.5804 22.7251 18.4778C21.6657 18.7649 20.6405 19.0589 19.6085 19.3254C19.3488 19.3939 19.2394 19.4827 19.2463 19.7766C19.2599 20.3577 18.9728 20.843 18.4671 20.9183C17.8383 21.0071 17.1753 21.0071 16.5398 20.9183C16.0203 20.843 15.7743 20.3509 15.7401 19.7424C15.7333 19.6194 15.6649 19.4212 15.5829 19.3939C14.4893 19.0725 13.3958 18.7786 12.2408 18.4641ZM19.8272 12.2298C19.8272 12.0384 19.8272 11.8811 19.8272 11.7239C19.8135 11.3138 19.6085 11.0882 19.1984 11.0814C18.0638 11.0745 16.9293 11.0745 15.7879 11.0814C15.4804 11.0814 15.248 11.2317 15.1865 11.5325C15.1455 11.7581 15.1797 11.9974 15.1797 12.2298C16.7448 12.2298 18.2621 12.2298 19.8272 12.2298ZM16.9362 19.8109C17.3189 19.8109 17.6879 19.8109 18.057 19.8109C18.057 19.4212 18.057 19.052 18.057 18.6829C17.6743 18.6829 17.3121 18.6829 16.9362 18.6829C16.9362 19.0589 16.9362 19.428 16.9362 19.8109Z" fill="#427C9C"/>
</svg>
