<svg width="35" height="33" viewBox="0 0 35 33" fill="none" xmlns="http://www.w3.org/2000/svg">
<g clip-path="url(#clip0_30_55)">
<path d="M27.6237 5.4751C28.5427 5.4751 29.4355 5.4751 30.3195 5.4751C31.3435 5.4751 32.3588 5.46631 33.3829 5.4751C34.0744 5.4751 34.2932 5.71239 34.2932 6.40666C34.2932 7.88307 34.2932 9.36831 34.2932 10.8447C34.2932 11.662 34.1094 11.8554 33.3042 11.8554C33.1903 11.8554 33.0766 11.8642 32.9278 11.873C32.9278 15.4498 32.9278 19.0178 32.9278 22.6386C33.3567 22.6386 33.7768 22.6298 34.1882 22.6386C34.7484 22.6474 34.9934 22.8934 34.9934 23.4471C35.0022 26.1276 35.0022 28.808 34.9934 31.4884C34.9934 32.0597 34.7308 32.3233 34.1619 32.3233C33.7593 32.3321 33.3479 32.3233 32.919 32.3233C32.9015 32.5605 32.884 32.7715 32.8665 33C32.4201 33 31.9825 33 31.5274 33C31.5186 32.7891 31.5011 32.5869 31.4924 32.3497C22.1707 32.3497 12.849 32.3497 3.5011 32.3497C3.49234 32.5605 3.48359 32.7627 3.46608 32.9912C3.0197 32.9912 2.59081 32.9912 2.10941 32.9912C2.10066 32.7891 2.08315 32.5782 2.0744 32.3145C1.66302 32.3145 1.25164 32.3145 0.849012 32.3145C0.25383 32.3145 0 32.0685 0 31.4796C0 28.8168 0 26.1451 0 23.4822C0 22.8759 0.236324 22.6474 0.849012 22.6386C1.25164 22.6298 1.65427 22.6386 2.0744 22.6386C2.0744 19.0178 2.0744 15.4674 2.0744 11.8554C1.83807 11.8554 1.62801 11.8642 1.40919 11.8554C0.98031 11.8378 0.700219 11.6005 0.700219 11.1787C0.691466 9.50895 0.682713 7.83915 0.700219 6.16937C0.700219 5.70359 1.01532 5.4751 1.57549 5.4751C3.34354 5.4751 5.10284 5.4751 6.8709 5.4751C7.02845 5.4751 7.18599 5.4751 7.41356 5.4751C7.41356 5.04447 7.37856 4.649 7.42232 4.2711C7.45733 4.01624 7.56236 3.75259 7.71116 3.53289C8.42012 2.43435 9.40919 2.06525 10.7221 2.17949C12.0787 2.30253 13.453 2.20586 14.8884 2.20586C14.8884 1.74887 14.8884 1.33582 14.8884 0.913982C14.8884 0.246072 15.1334 0 15.7724 0C16.8227 0 17.8731 0 18.9234 0C19.5011 0 19.7462 0.246072 19.7637 0.817308C19.7725 1.23915 19.7725 1.66978 19.7725 2.09161C19.7725 2.1004 19.7812 2.11798 19.8162 2.19707C19.9562 2.19707 20.1225 2.19707 20.2889 2.19707C22.0219 2.19707 23.7636 2.20586 25.4967 2.18828C25.8644 2.18828 26.1532 2.28495 26.3808 2.57497C26.407 2.61012 26.442 2.64527 26.4683 2.67164C27.2823 3.33955 27.7899 4.13049 27.5711 5.24661C27.5711 5.29054 27.5973 5.35207 27.6237 5.4751ZM3.50985 22.6298C3.71116 22.6298 3.89497 22.6298 4.08753 22.6298C6.84464 22.6298 9.60177 22.6298 12.3589 22.6298C13.0766 22.6298 13.0853 22.6122 12.9978 21.8829C12.9978 21.8564 12.9716 21.8301 12.9541 21.8037C12.9278 21.7949 12.9016 21.7773 12.8753 21.7773C12.4551 21.7773 12.0262 21.7773 11.6062 21.7686C11.0547 21.7686 10.7483 21.5049 10.7571 21.0479C10.7658 20.6173 11.0634 20.3712 11.5974 20.3712C15.5361 20.3712 19.4749 20.3712 23.4136 20.3712C23.965 20.3712 24.2713 20.6261 24.2626 21.0831C24.2538 21.5225 23.965 21.7598 23.4223 21.7598C22.9584 21.7598 22.5033 21.7598 22.0569 21.7598C21.9256 22.621 21.9256 22.621 22.6958 22.6122C25.453 22.6122 28.2101 22.6122 30.9672 22.6122C31.1422 22.6122 31.3085 22.6122 31.5011 22.6122C31.5011 19.0003 31.5011 15.4322 31.5011 11.8642C27.0634 11.8642 22.6521 11.8642 18.2407 11.8642C18.2407 12.5321 18.2407 13.1736 18.2407 13.8503C18.4507 13.8503 18.6346 13.8503 18.8271 13.8503C20.3851 13.8503 21.9518 13.8503 23.5098 13.8503C24.0613 13.8503 24.3939 14.2458 24.2538 14.7204C24.1313 15.1422 23.7899 15.2388 23.3961 15.2388C21.4704 15.2388 19.5449 15.2476 17.6192 15.2388C15.6236 15.2388 13.6193 15.2301 11.6237 15.2301C11.2385 15.2301 10.9234 15.1334 10.8008 14.7292C10.6521 14.237 10.9934 13.8415 11.5711 13.8415C13.1466 13.8327 14.7221 13.8415 16.2976 13.8415C16.4639 13.8415 16.6389 13.8415 16.8053 13.8415C16.8053 13.1385 16.8053 12.5057 16.8053 11.8554C12.3676 11.8554 7.95622 11.8554 3.53611 11.8554C3.50985 15.4674 3.50985 19.0178 3.50985 22.6298ZM33.593 24.0447C22.8534 24.0447 12.1313 24.0447 1.41795 24.0447C1.41795 26.3561 1.41795 28.6322 1.41795 30.8996C12.1576 30.8996 22.8709 30.8996 33.593 30.8996C33.593 28.6059 33.593 26.3385 33.593 24.0447ZM32.884 6.85486C32.6652 6.85486 32.4989 6.85486 32.3239 6.85486C30.5558 6.85486 28.7965 6.85486 27.0284 6.85486C26.442 6.85486 26.2057 6.61758 26.1969 6.03755C26.1882 5.64208 26.1969 5.24661 26.1969 4.85113C26.1969 4.14807 25.6543 3.59441 24.9628 3.59441C20.0613 3.59441 15.1598 3.6032 10.2669 3.58562C9.75927 3.58562 9.34794 3.68229 9.07661 4.11292C8.95403 4.30626 8.84028 4.53475 8.82278 4.76325C8.77895 5.14993 8.81403 5.55419 8.81403 5.94966C8.80528 6.64394 8.5952 6.86365 7.89497 6.86365C6.12692 6.86365 4.36762 6.86365 2.59956 6.86365C2.44201 6.86365 2.29322 6.86365 2.11816 6.86365C2.11816 8.09404 2.11816 9.25406 2.11816 10.4405C12.3851 10.4405 22.6258 10.4405 32.8928 10.4405C32.884 9.25406 32.884 8.08524 32.884 6.85486ZM14.4245 21.7949C14.3107 22.6386 14.3107 22.6386 15.0722 22.6386C16.6915 22.6386 18.3107 22.6386 19.93 22.6386C20.6739 22.6386 20.6739 22.6386 20.6039 21.8916C20.6039 21.8652 20.5777 21.8389 20.5514 21.8037C18.5208 21.7949 16.4814 21.7949 14.4245 21.7949ZM18.3545 2.08283C18.3545 1.82796 18.3545 1.61705 18.3545 1.41491C17.6542 1.41491 16.9978 1.41491 16.3151 1.41491C16.3151 1.6522 16.3151 1.85433 16.3151 2.08283C16.9978 2.08283 17.663 2.08283 18.3545 2.08283Z" fill="#427C9C"/>
<path d="M9.05912 28.7117C8.61271 28.7117 8.19255 28.7117 7.73743 28.7117C7.73743 27.8504 7.73743 26.998 7.73743 26.1191C8.1663 26.1191 8.59521 26.1191 9.05912 26.1191C9.05912 26.954 9.05912 27.8065 9.05912 28.7117Z" fill="#427C9C"/>
<path d="M13.803 26.1104C14.2494 26.1104 14.6696 26.1104 15.1247 26.1104C15.1247 26.9716 15.1247 27.8153 15.1247 28.6941C14.6959 28.6941 14.2669 28.6941 13.803 28.6941C13.803 27.8417 13.803 26.9892 13.803 26.1104Z" fill="#427C9C"/>
<path d="M19.8687 28.7029C19.8687 27.8241 19.8687 26.9804 19.8687 26.1104C20.3151 26.1104 20.744 26.1104 21.2079 26.1104C21.2079 26.9716 21.2079 27.8241 21.2079 28.7029C20.7615 28.7029 20.3414 28.7029 19.8687 28.7029Z" fill="#427C9C"/>
<path d="M25.9431 26.0928C26.3983 26.0928 26.8096 26.0928 27.2648 26.0928C27.2648 26.9541 27.2648 27.8065 27.2648 28.6941C26.8359 28.6941 26.407 28.6941 25.9431 28.6941C25.9431 27.8504 25.9431 26.998 25.9431 26.0928Z" fill="#427C9C"/>
<path d="M17.488 8.60332C16.6127 8.59452 15.9125 7.88266 15.93 7.00385C15.9388 6.16018 16.6652 5.44832 17.5055 5.45711C18.372 5.4659 19.081 6.19533 19.0722 7.06537C19.0547 7.90906 18.3457 8.60332 17.488 8.60332ZM16.9628 7.00385C16.9891 7.30265 17.1291 7.52235 17.4617 7.54872C17.7943 7.57508 17.9956 7.39053 18.0219 7.06537C18.0481 6.7402 17.8556 6.52928 17.5405 6.50291C17.2167 6.47655 17.0328 6.66989 16.9628 7.00385Z" fill="#427C9C"/>
</g>
<defs>
<clipPath id="clip0_30_55">
<rect width="35" height="33" fill="white"/>
</clipPath>
</defs>
</svg>
