<svg width="35" height="35" viewBox="0 0 35 35" fill="none" xmlns="http://www.w3.org/2000/svg">
<g clip-path="url(#clip0_30_62)">
<path d="M6.13089 4.95676C8.10478 4.97176 9.55333 4.00405 10.2963 2.18114C10.3038 2.16614 10.3038 2.15863 10.3113 2.14363C10.7091 1.16092 10.8142 1.1084 11.8049 1.5435C12.7205 1.94109 13.6512 2.06112 14.6194 1.81356C15.3248 1.63352 15.9478 1.30345 16.4732 0.800836C16.6608 0.620796 16.8409 0.425752 17.0286 0.245712C17.3663 -0.0768595 17.6815 -0.084361 18.0117 0.238211C18.1844 0.403247 18.342 0.583287 18.5146 0.740822C19.798 1.91858 21.2691 2.23365 22.9202 1.67102C23.1904 1.58101 23.4531 1.44597 23.7158 1.34846C24.0911 1.20592 24.3837 1.32595 24.5489 1.68603C24.6614 1.92608 24.7365 2.17364 24.8491 2.41369C25.6071 4.04156 26.898 4.87424 28.6843 4.95676C28.8869 4.96426 29.0821 4.95676 29.2847 4.95676C29.8551 4.95676 30.0427 5.1593 30.0577 5.72193C30.0727 6.23204 30.0577 6.75716 30.1703 7.24477C30.4931 8.67008 31.3712 9.66033 32.7222 10.2154C33.893 10.703 33.893 10.703 33.4127 11.8733C32.7147 13.5762 33.0599 15.2941 34.3583 16.5993C34.5084 16.7494 34.666 16.8919 34.8086 17.0494C35.0638 17.327 35.0638 17.6421 34.8086 17.9272C34.6435 18.1147 34.4483 18.2722 34.2757 18.4597C33.0373 19.8026 32.7297 21.3254 33.3751 23.0358C33.4577 23.2608 33.5627 23.4708 33.6453 23.6959C33.7879 24.071 33.6678 24.3636 33.3076 24.5286C33.0599 24.6412 32.7972 24.7312 32.5495 24.8437C30.9434 25.6088 30.1178 26.8917 30.0427 28.662C30.0352 28.8721 30.0427 29.0896 30.0427 29.2997C30.0352 29.8098 29.8251 30.0123 29.3072 30.0348C28.7818 30.0573 28.249 30.0348 27.7462 30.1548C26.3202 30.4849 25.3369 31.3627 24.774 32.7129C24.2937 33.8757 24.2862 33.8832 23.1078 33.3956C21.4042 32.6979 19.6854 33.043 18.387 34.3483C17.5164 35.2185 17.4939 35.2185 16.6157 34.3408C15.3023 33.028 13.5762 32.6904 11.8574 33.4106C10.7317 33.8757 10.7016 33.8682 10.2437 32.7429C9.53075 31.0176 8.05224 30.0273 6.18342 30.0348C5.00509 30.0423 4.96757 30.0048 4.97507 28.8196C4.97507 26.9517 3.98437 25.4738 2.25816 24.7612C1.13987 24.3036 1.13237 24.2736 1.59769 23.1483C2.3182 21.4154 1.97296 19.6975 0.62951 18.3623C-0.211083 17.5296 -0.211083 17.4846 0.637015 16.6368C1.98046 15.2941 2.3182 13.5612 1.58268 11.8133C1.13237 10.7481 1.16238 10.688 2.22813 10.2529C3.99938 9.53275 4.98258 8.05495 4.97507 6.14203C4.97507 6.12702 4.97507 6.11952 4.97507 6.10452C4.99008 5.00177 5.03512 4.94926 6.13089 4.95676ZM32.2868 23.6134C31.4312 21.3029 31.8365 19.2624 33.4952 17.4921C31.8215 15.6842 31.4387 13.6437 32.2793 11.3857C30.0577 10.358 28.9094 8.64008 28.8194 6.20953C26.3727 6.11952 24.6539 4.95676 23.6407 2.75127C21.3517 3.59896 19.3177 3.19387 17.5314 1.536C15.7377 3.19387 13.7037 3.59146 11.4146 2.75127C10.4089 4.98677 8.68267 6.13452 6.23597 6.20953C6.1459 8.66258 4.98258 10.3805 2.77602 11.3932C3.62412 13.6812 3.21883 15.7217 1.54516 17.5146C2.36323 18.3173 2.8811 19.2699 3.09875 20.3802C3.31641 21.4829 3.18131 22.5632 2.76102 23.5984C2.82106 23.6359 2.85107 23.6584 2.8811 23.6734C4.94505 24.6412 6.07835 26.2465 6.19093 28.5345C6.20594 28.8196 6.35605 28.8121 6.55869 28.8196C7.66947 28.8496 8.66017 29.2247 9.55333 29.8698C10.3939 30.4774 10.9868 31.2801 11.3996 32.2478C13.7037 31.4002 15.7527 31.8053 17.5314 33.4556C19.3327 31.7903 21.3667 31.4077 23.6332 32.2403C23.6632 32.2028 23.6857 32.1728 23.7007 32.1428C24.669 30.0798 26.3051 28.9846 28.5717 28.8196C28.8569 28.7971 28.8419 28.6395 28.8494 28.4445C28.8869 27.3343 29.2547 26.344 29.9077 25.4513C30.5231 24.6112 31.3262 24.011 32.2868 23.6134Z" fill="#427C9C"/>
<path d="M4.20953 17.4842C4.21704 10.14 10.1837 4.18367 17.5314 4.16116C24.8641 4.14615 30.9133 10.2 30.8608 17.5067C30.8158 24.8732 24.8491 30.8221 17.5239 30.7996C10.1612 30.7846 4.19452 24.8132 4.20953 17.4842ZM17.5239 5.40644C10.8592 5.41394 5.44791 10.8152 5.44791 17.4766C5.4404 24.1531 10.8667 29.5693 17.5389 29.5693C24.1962 29.5693 29.6149 24.1531 29.6149 17.4992C29.6224 10.8227 24.2037 5.40644 17.5239 5.40644Z" fill="#427C9C"/>
<path d="M11.9775 23.9888C12.1051 23.3136 12.2477 22.5634 12.3903 21.8208C12.5554 20.9656 12.7055 20.1029 12.8932 19.2477C12.9532 18.9777 12.8782 18.8126 12.6905 18.6326C11.6172 17.5674 10.559 16.4871 9.49324 15.4144C9.26808 15.1893 9.05041 14.9643 9.17049 14.5967C9.29808 14.2366 9.60583 14.1841 9.92108 14.1466C11.3996 13.959 12.8707 13.7715 14.3492 13.5989C14.6569 13.5614 14.8521 13.4639 15.0022 13.1639C15.6776 11.8135 16.3831 10.4783 17.0736 9.13544C17.2162 8.85794 17.3738 8.61035 17.7341 8.61035C18.0868 8.61785 18.2444 8.86543 18.3795 9.15043C19.0325 10.5533 19.7005 11.9486 20.3534 13.3514C20.4435 13.5539 20.5561 13.6514 20.7887 13.6889C22.3198 13.929 23.8434 14.1841 25.3745 14.4316C25.6822 14.4842 25.9749 14.5592 26.08 14.8968C26.1775 15.2344 26.0049 15.4594 25.7647 15.6769C24.6389 16.7271 23.5282 17.7849 22.3948 18.8276C22.2072 19.0002 22.1547 19.1727 22.1922 19.4203C22.4324 20.9356 22.6576 22.4584 22.8977 23.9738C22.9502 24.2889 22.9502 24.5814 22.6651 24.7839C22.3873 24.9789 22.1247 24.8889 21.862 24.7389C20.5035 23.9888 19.1451 23.2536 17.7941 22.4959C17.5689 22.3684 17.4038 22.3684 17.1712 22.4884C15.7827 23.2011 14.3867 23.8988 12.9907 24.5964C12.4428 24.8514 11.9775 24.6039 11.9775 23.9888ZM17.7116 10.6208C17.614 10.8009 17.5389 10.9134 17.4789 11.0334C16.931 12.0986 16.3756 13.1639 15.8277 14.2291C15.6927 14.4917 15.5275 14.6792 15.2123 14.7167C14.6194 14.7842 14.0189 14.8668 13.426 14.9418C12.6605 15.0393 11.9025 15.1368 11.0769 15.2419C11.2045 15.3844 11.287 15.4744 11.3696 15.5569C12.2252 16.4196 13.0732 17.2823 13.9289 18.1374C14.1766 18.3775 14.2516 18.6401 14.1766 18.9852C14.0265 19.6678 13.9063 20.3579 13.7787 21.0406C13.6587 21.6633 13.5461 22.2784 13.426 22.961C13.5987 22.8785 13.7112 22.8335 13.8238 22.7735C14.9046 22.2334 15.9928 21.6933 17.0736 21.1381C17.3663 20.9881 17.629 20.9806 17.9217 21.1456C18.3645 21.4007 18.8148 21.6408 19.2652 21.8883C20.0007 22.2859 20.7287 22.6909 21.4792 23.1035C21.4792 23.006 21.4867 22.946 21.4792 22.886C21.2916 21.6783 21.1114 20.4629 20.9088 19.2627C20.8337 18.8201 20.9238 18.4825 21.2766 18.1674C22.1472 17.3948 22.9727 16.5771 23.8283 15.7894C23.9259 15.6994 24.061 15.6619 24.1811 15.6019C24.1436 15.5569 24.0986 15.5119 24.061 15.4669C22.8302 15.2644 21.5993 15.0468 20.3609 14.8743C19.8506 14.7992 19.5353 14.5967 19.3177 14.1091C18.8373 12.9613 18.2744 11.8285 17.7116 10.6208Z" fill="#427C9C"/>
</g>
<defs>
<clipPath id="clip0_30_62">
<rect width="35" height="35" fill="white"/>
</clipPath>
</defs>
</svg>
