<svg width="35" height="35" viewBox="0 0 35 35" fill="none" xmlns="http://www.w3.org/2000/svg">
<path d="M0 32.8745C0.18457 32.3414 0.560547 31.9587 0.950192 31.5691C3.53418 28.9993 6.10449 26.4158 8.6885 23.846C8.77733 23.7572 8.89358 23.6957 8.98925 23.6205C7.18457 20.9687 6.58301 18.1391 7.27344 15.0772C7.85449 12.5142 9.2285 10.4365 11.3613 8.89191C15.6748 5.76849 21.6152 6.32892 25.2382 10.1837C28.834 14.0042 29.0732 19.9708 25.8467 23.9827C22.415 28.2543 16.208 29.3615 11.4365 26.0399C11.3477 26.1287 11.2451 26.2176 11.1562 26.3065C8.57225 28.8899 5.98144 31.4734 3.4043 34.0637C3.02832 34.4465 2.64551 34.8087 2.12598 34.9864C1.90039 34.9864 1.66797 34.9864 1.44238 34.9864C0.697266 34.7746 0.21875 34.2961 0.00683594 33.5512C0 33.3324 0 33.1001 0 32.8745ZM9.82325 22.732C10.1788 22.3697 10.5 22.0143 10.8487 21.6862C11.0263 21.5154 11.0195 21.3992 10.9033 21.1942C10.1035 19.7862 9.78908 18.2758 9.96683 16.6628C10.4248 12.4049 14.4375 9.3225 18.6484 9.99908C22.7022 10.6484 25.4638 14.2571 25.0332 18.3442C24.6436 22.0895 21.4102 25.0352 17.6436 25.0831C16.2695 25.0967 14.9843 24.7687 13.7881 24.0989C13.6856 24.0442 13.4873 24.0237 13.4189 24.0852C13.0293 24.4337 12.667 24.8097 12.291 25.1787C15.5927 27.5708 20.8769 27.5572 24.3701 23.8938C27.7744 20.3262 27.7744 14.5577 24.3769 11.038C20.7881 7.31994 15.1757 7.06022 11.3203 10.4775C7.50586 13.8402 7.34863 19.2395 9.82325 22.732ZM14.4785 23.1079C16.6933 24.4817 20.2686 24.2082 22.4492 21.5769C24.6572 18.9114 24.3564 15.0772 21.793 12.7329C19.291 10.4502 15.3945 10.5391 12.9746 12.9585C10.6231 15.3096 10.6982 18.7201 11.874 20.4766C13.0567 19.2942 14.2597 18.0912 15.4424 16.9157C15.3945 16.9157 15.2783 16.9226 15.1689 16.9157C14.1709 16.8816 13.4257 16.1434 13.4189 15.1866C13.4121 14.2229 14.1777 13.4301 15.1757 13.4232C16.7275 13.4096 18.2725 13.4096 19.8242 13.4232C20.8154 13.4301 21.5742 14.1614 21.5879 15.1456C21.6084 16.7312 21.6152 18.31 21.5879 19.8956C21.5742 20.8593 20.7812 21.5974 19.8379 21.5974C18.8945 21.5974 18.1426 20.8662 18.0947 19.8956C18.0879 19.7657 18.0947 19.6291 18.0947 19.4992C16.8642 20.7089 15.668 21.9118 14.4785 23.1079ZM20.4189 17.524C20.4189 16.7858 20.4258 16.0409 20.4189 15.3027C20.4189 14.7902 20.2002 14.5783 19.6875 14.5783C18.9561 14.5714 18.2314 14.5783 17.5 14.5783C16.7481 14.5783 15.9961 14.5714 15.2442 14.5783C14.7177 14.5852 14.3965 15.0567 14.6768 15.4462C14.7862 15.6035 15.0459 15.7197 15.2442 15.7333C15.8252 15.7743 16.4062 15.7197 16.9873 15.7607C17.1787 15.7743 17.4317 15.9247 17.5273 16.0887C17.6094 16.2391 17.5342 16.492 17.4795 16.6902C17.4522 16.7995 17.3154 16.8747 17.2266 16.9636C12.0107 22.1783 6.78808 27.4 1.57227 32.6148C1.47657 32.7105 1.37402 32.8062 1.29199 32.9155C1.11426 33.1616 1.12793 33.4077 1.32617 33.6332C1.51758 33.8518 1.82519 33.8997 2.06445 33.7288C2.17383 33.6537 2.26953 33.5512 2.36523 33.4555C7.61523 28.2065 12.8652 22.9575 18.1152 17.7085C18.3408 17.483 18.5732 17.319 18.9013 17.4557C19.209 17.5855 19.2637 17.8657 19.2568 18.1665C19.25 18.7132 19.2568 19.26 19.2568 19.8067C19.2568 20.0733 19.3662 20.2715 19.6123 20.374C20.0225 20.5517 20.4121 20.251 20.4189 19.7521C20.4258 19.0002 20.4189 18.2622 20.4189 17.524Z" fill="#427C9C"/>
<path d="M16.6113 34.9932C15.9961 34.8223 15.6953 34.3986 15.5654 33.7834C15.415 33.0248 15.1894 32.2798 15.0186 31.528C14.9707 31.323 14.875 31.241 14.6699 31.1932C14.1299 31.0632 13.5898 30.9197 13.0567 30.7557C12.8721 30.701 12.7695 30.7421 12.6465 30.8719C12.0586 31.4938 11.4638 32.109 10.8692 32.7173C10.3975 33.2025 9.91208 33.2777 9.32425 32.9564C8.93458 32.7446 8.55175 32.5259 8.16894 32.2935C7.82031 32.0817 7.72461 31.7536 7.90234 31.4597C8.08008 31.1589 8.415 31.0974 8.76367 31.2957C9.16017 31.5212 9.54983 31.7536 9.96683 31.9928C10.582 31.3503 11.2041 30.7352 11.7852 30.0791C12.2637 29.5392 12.79 29.4093 13.4668 29.6622C13.9658 29.8468 14.4922 29.9697 15.0117 30.0723C15.6132 30.1952 15.9824 30.5233 16.1192 31.1248C16.3037 31.9244 16.5087 32.7173 16.6933 33.5101C16.7481 33.7356 16.8301 33.8449 17.0762 33.8244C17.4385 33.7971 17.9033 33.9338 18.1357 33.7561C18.3682 33.5853 18.375 33.1068 18.4638 32.7582C18.6074 32.2115 18.7442 31.6579 18.874 31.1042C19.0039 30.5302 19.3525 30.2089 19.9268 30.0791C20.5147 29.9492 21.0957 29.792 21.6699 29.6143C22.2373 29.4367 22.6748 29.5665 23.0987 29.9697C23.7617 30.6122 24.4658 31.2137 25.2041 31.8834C25.3955 31.7741 25.7578 31.5827 26.0928 31.3572C26.1748 31.3025 26.2158 31.1042 26.1885 31.0017C25.9834 30.2226 25.7715 29.4435 25.5186 28.6712C25.3135 28.0424 25.457 27.5502 25.9561 27.1128C26.3936 26.7302 26.79 26.3064 27.1865 25.8827C27.5693 25.4726 28 25.329 28.54 25.4931C29.3467 25.7322 30.1602 25.9442 30.9668 26.197C31.2061 26.2722 31.3154 26.2107 31.4248 26.0125C31.5957 25.6912 31.7871 25.3837 31.917 25.1582C31.5 24.6866 31.1172 24.2423 30.7138 23.8118C30.4473 23.5315 30.1533 23.2787 29.8799 23.0052C29.5517 22.6704 29.4561 22.274 29.5859 21.8092C29.7705 21.1531 29.9482 20.497 30.1192 19.834C30.2422 19.3419 30.5293 19.0343 31.0215 18.9182C31.8623 18.7063 32.6962 18.4944 33.5371 18.2962C33.749 18.2484 33.8447 18.1595 33.8311 17.934C33.8174 17.6401 33.8174 17.3394 33.8311 17.0455C33.8379 16.8473 33.7627 16.7721 33.5712 16.7242C32.7647 16.5329 31.958 16.321 31.1513 16.1365C30.5293 15.9998 30.2012 15.6307 30.0712 15.0087C29.9551 14.4278 29.7842 13.8606 29.6132 13.3002C29.4492 12.767 29.5654 12.3365 29.9482 11.9264C30.5908 11.2497 31.2061 10.5458 31.8897 9.78717C31.7803 9.58892 31.582 9.21992 31.3564 8.87133C31.3086 8.803 31.124 8.76883 31.0215 8.79617C30.2285 9.008 29.4424 9.22675 28.6631 9.47275C28.041 9.671 27.5625 9.52058 27.1387 9.03533C26.7695 8.61842 26.3731 8.22202 25.9561 7.85296C25.4844 7.43605 25.3408 6.95762 25.5254 6.35618C25.7647 5.57703 25.9697 4.77739 26.209 3.99824C26.2705 3.80004 26.2432 3.69068 26.0586 3.58817C25.7168 3.41047 25.3887 3.20543 25.04 3.00039C24.4112 3.65652 23.7891 4.2853 23.1943 4.94142C22.7432 5.44034 22.2442 5.57703 21.6016 5.34466C21.082 5.16012 20.5352 5.03027 19.9883 4.91408C19.3799 4.79106 19.0244 4.45616 18.8877 3.85472C18.7031 3.04823 18.4844 2.24175 18.2998 1.43527C18.2519 1.22339 18.1631 1.15505 17.958 1.16188C17.582 1.18238 17.1172 1.05252 16.8643 1.23022C16.6318 1.39426 16.6318 1.87952 16.543 2.22808C16.3926 2.80218 16.249 3.37629 16.1123 3.9504C15.9893 4.45616 15.6817 4.75005 15.1757 4.87308C14.5263 5.03027 13.8769 5.20797 13.2344 5.39933C12.749 5.54287 12.332 5.43351 11.9834 5.07127C11.3955 4.46983 10.8076 3.86155 10.2266 3.25327C10.1513 3.17126 10.0898 3.06873 10.0215 2.97305C9.61133 3.20543 9.27633 3.4173 8.92775 3.60183C8.75683 3.69068 8.75 3.80004 8.80467 3.96407C9.04392 4.75688 9.25583 5.56337 9.50192 6.35618C9.69333 6.96446 9.54983 7.43605 9.07817 7.85296C8.63375 8.24937 8.23047 8.67308 7.82715 9.1105C7.44433 9.52058 7.01367 9.65733 6.47363 9.50008C5.66699 9.26092 4.85352 9.049 4.04687 8.79617C3.80762 8.72092 3.69824 8.7825 3.58887 8.98067C3.41797 9.30192 3.22657 9.60942 3.12403 9.794C3.78028 10.5116 4.375 11.2019 5.01074 11.8443C5.45507 12.2886 5.5918 12.7533 5.38672 13.3548C5.20215 13.9016 5.06543 14.4688 4.94238 15.0362C4.81933 15.6102 4.50488 15.9657 3.93067 16.1023C3.13086 16.2937 2.34472 16.4987 1.54492 16.6832C1.29882 16.7379 1.16894 16.8337 1.19629 17.107C1.22363 17.3804 1.2168 17.6537 1.19629 17.9272C1.18262 18.1595 1.27832 18.2416 1.49023 18.2894C2.27637 18.4739 3.05567 18.6858 3.84863 18.8567C4.49805 19.0002 4.83984 19.3692 4.96289 20.0254C5.06543 20.579 5.23632 21.1326 5.40722 21.6725C5.5918 22.233 5.46192 22.6772 5.05176 23.101C4.40918 23.7639 3.80762 24.4611 3.13769 25.206C3.27442 25.4384 3.5 25.828 3.72558 26.2243C3.9375 26.5934 3.87597 26.9352 3.56152 27.1128C3.26074 27.2838 2.94629 27.1813 2.72754 26.8258C2.48828 26.4294 2.25586 26.0193 2.03028 25.6092C1.75683 25.0967 1.83203 24.5841 2.24902 24.174C2.87109 23.5589 3.50683 22.9506 4.14257 22.3492C4.28613 22.2125 4.31348 22.0962 4.25195 21.9049C4.08789 21.3718 3.9375 20.8387 3.80762 20.2919C3.7666 20.1143 3.69141 20.0322 3.51367 19.9844C2.74805 19.7998 1.99609 19.5743 1.23047 19.4171C0.594727 19.3009 0.170898 19.0002 0 18.3851C0 17.7905 0 17.2027 0 16.6081C0.170898 15.993 0.594727 15.6922 1.20996 15.5624C1.96875 15.412 2.71387 15.1865 3.46582 15.0156C3.6709 14.9677 3.75977 14.8721 3.80078 14.6671C3.92382 14.134 4.06738 13.6077 4.22461 13.0883C4.28613 12.8833 4.24512 12.7602 4.09473 12.6235C3.47949 12.0494 2.87793 11.4617 2.26953 10.8738C1.78418 10.4023 1.70898 9.917 2.03028 9.32925C2.22852 8.96017 2.44043 8.59108 2.65234 8.2357C3.01465 7.63425 3.47949 7.44972 4.15625 7.64108C4.96289 7.87347 5.77637 8.09901 6.58301 8.33825C6.78125 8.39975 6.9043 8.35875 7.04785 8.20152C7.41016 7.80512 7.78613 7.42237 8.18262 7.06698C8.36033 6.90978 8.38083 6.77992 8.31933 6.56805C8.07324 5.75473 7.84082 4.93458 7.6084 4.1076C7.44433 3.51298 7.63574 3.02089 8.16211 2.69967C8.53808 2.46729 8.92775 2.24858 9.31742 2.03671C9.90525 1.71548 10.3906 1.79067 10.8623 2.26909C11.457 2.8842 12.0517 3.49248 12.6397 4.11443C12.7763 4.25796 12.8857 4.29213 13.084 4.23062C13.6172 4.06659 14.1504 3.91622 14.6972 3.78637C14.875 3.74537 14.957 3.67702 15.0049 3.49248C15.1894 2.72701 15.415 1.9752 15.5723 1.20973C15.6953 0.594611 15.9961 0.170865 16.6113 0C17.2061 0 17.7939 0 18.3887 0C19.0039 0.170865 19.3115 0.594611 19.4346 1.20973C19.585 1.9547 19.7969 2.686 19.9746 3.43097C20.0225 3.63601 20.1045 3.7522 20.3369 3.80004C20.8701 3.91622 21.3965 4.06659 21.916 4.22378C22.1211 4.2853 22.2442 4.24429 22.3808 4.09392C22.9619 3.47198 23.5635 2.85687 24.1582 2.24858C24.5957 1.7975 25.1016 1.72232 25.6484 2.01621C26.0312 2.22125 26.4004 2.43995 26.7763 2.65866C27.3779 3.02089 27.5625 3.48565 27.3711 4.16227C27.1455 4.96193 26.9199 5.76157 26.6807 6.55438C26.6123 6.78676 26.6602 6.91662 26.8379 7.07382C27.2207 7.41554 27.583 7.77777 27.9248 8.16052C28.082 8.33138 28.2119 8.39292 28.4443 8.32455C29.2578 8.07167 30.0782 7.83929 30.8984 7.61375C31.5 7.44972 31.9853 7.64108 32.3067 8.16735C32.5322 8.53642 32.7442 8.91233 32.9561 9.28825C33.2978 9.91017 33.2227 10.3954 32.71 10.8875C32.1016 11.4753 31.5 12.0631 30.8847 12.6372C30.7412 12.7738 30.7138 12.8901 30.7686 13.0814C30.9326 13.6145 31.083 14.1477 31.2129 14.6944C31.2539 14.8721 31.3223 14.9541 31.5068 15.0019C32.2725 15.1797 33.0244 15.412 33.79 15.5692C34.4053 15.6991 34.8291 15.993 35 16.6149C35 17.2095 35 17.7973 35 18.3919C34.8291 19.0138 34.4053 19.3077 33.79 19.4376C33.0244 19.5948 32.2657 19.8135 31.5068 19.9981C31.3291 20.0391 31.2539 20.1211 31.2129 20.3056C31.083 20.8455 30.9394 21.3855 30.7754 21.9186C30.7138 22.1236 30.7481 22.2398 30.9052 22.3902C31.5205 22.9643 32.1221 23.5521 32.7305 24.1398C33.2158 24.6114 33.291 25.0967 32.9766 25.6844C32.7783 26.0535 32.5664 26.4226 32.3477 26.778C31.9853 27.3862 31.5205 27.5639 30.8438 27.3726C30.0371 27.1402 29.2237 26.9147 28.417 26.6754C28.2187 26.6139 28.0957 26.6549 27.9522 26.8122C27.5898 27.2086 27.2138 27.5913 26.8174 27.9467C26.6397 28.1039 26.6192 28.2337 26.6807 28.4456C26.9268 29.2589 27.1592 30.0791 27.3916 30.9061C27.5557 31.5007 27.3643 31.9927 26.8379 32.314C26.4688 32.5396 26.0928 32.7514 25.7168 32.9633C25.0947 33.305 24.6093 33.2298 24.1172 32.7173C23.5225 32.1022 22.9346 31.4802 22.333 30.8787C22.251 30.7967 22.0732 30.7558 21.9638 30.7831C21.4238 30.9129 20.8907 31.0837 20.3506 31.2068C20.1455 31.2547 20.0498 31.3367 20.0019 31.5417C19.8242 32.2935 19.6055 33.0385 19.4482 33.7902C19.3183 34.4054 19.0244 34.8292 18.4023 35C17.7939 34.9932 17.2061 34.9932 16.6113 34.9932Z" fill="#427C9C"/>
</svg>
